<svg width="24" height="54" viewBox="0 0 24 54" fill="none" xmlns="http://www.w3.org/2000/svg">
<path d="M13.5 2C13.5 1.17157 12.8284 0.5 12 0.5C11.1716 0.5 10.5 1.17157 10.5 2L13.5 2ZM10.9393 53.0607C11.5251 53.6464 12.4749 53.6464 13.0607 53.0607L22.6066 43.5147C23.1924 42.9289 23.1924 41.9792 22.6066 41.3934C22.0208 40.8076 21.0711 40.8076 20.4853 41.3934L12 49.8787L3.51472 41.3934C2.92893 40.8076 1.97918 40.8076 1.3934 41.3934C0.80761 41.9792 0.80761 42.9289 1.3934 43.5147L10.9393 53.0607ZM10.5 2L10.5 52L13.5 52L13.5 2L10.5 2Z" fill="black"/>
</svg>
