<svg width="56" height="56" viewBox="0 0 56 56" fill="none" xmlns="http://www.w3.org/2000/svg">
<g clip-path="url(#clip0_0_220)">
<path d="M38.5 37.9527C37.8959 37.9527 37.4062 38.4427 37.4062 39.0464C37.4062 39.6502 37.8959 40.1402 38.5 40.1402C39.1038 40.1402 39.5938 39.6502 39.5938 39.0464C39.5938 38.4427 39.1038 37.9527 38.5 37.9527ZM29.0938 18.7031C29.0938 18.099 28.6038 17.6094 28 17.6094C27.3962 17.6094 26.9062 18.099 26.9062 18.7031C26.9062 19.3069 27.3962 19.7969 28 19.7969C28.6038 19.7969 29.0938 19.3069 29.0938 18.7031ZM17.5 40.1402C18.1037 40.1402 18.5938 39.6502 18.5938 39.0464C18.5938 38.4427 18.1037 37.9527 17.5 37.9527C16.8963 37.9527 16.4062 38.4427 16.4062 39.0464C16.4062 39.6502 16.8963 40.1402 17.5 40.1402Z" fill="#FB8B24"/>
<path d="M55.3502 45.3377L49.4371 42.7105V18.7031C49.4371 18.27 49.1777 17.8687 48.7655 17.6936L29.0937 9.23278V1.20312C29.0937 0.599047 28.6037 0.109375 28 0.109375C27.3959 0.109375 26.9062 0.599047 26.9062 1.20312V9.23278L7.2346 17.6936C6.84358 17.8559 6.56293 18.252 6.56293 18.7031V42.7105L0.649679 45.3377C0.0977723 45.5833 -0.150946 46.2293 0.0942723 46.7813C0.33785 47.3298 0.982069 47.5837 1.53802 47.3367L7.66335 44.6152L27.568 53.1759C27.8311 53.2891 28.1528 53.2959 28.4322 53.1759L48.3363 44.6152L54.4617 47.3367C55.0198 47.5846 55.6628 47.3278 55.9055 46.7813C56.1507 46.2293 55.902 45.5833 55.3501 45.3376L55.3502 45.3377ZM26.9062 11.6142V14.3281C26.9062 14.9319 27.3959 15.4219 28 15.4219C28.6037 15.4219 29.0937 14.9319 29.0937 14.3281V11.6142L45.5752 18.7031L28 26.2624L10.4247 18.7031L26.9062 11.6142ZM14.502 40.3796C14.2564 39.8276 13.61 39.5793 13.0583 39.8241L8.74999 41.7386V20.3639L26.9062 28.173V50.5104L10.3868 43.4053L13.9466 41.8236C14.4986 41.5779 14.7472 40.9314 14.502 40.3795V40.3796ZM29.0937 50.5104V28.173L47.2496 20.3639V41.7385L42.9416 39.8244C42.3893 39.5792 41.7432 39.8275 41.498 40.3799C41.2527 40.9318 41.5014 41.5779 42.0534 41.8236L45.6132 43.4051L29.0937 50.5104Z" fill="#FB8B24"/>
</g>
<defs>
<clipPath id="clip0_0_220">
<rect width="56" height="56" fill="white"/>
</clipPath>
</defs>
</svg>
