<svg width="56" height="56" viewBox="0 0 56 56" fill="none" xmlns="http://www.w3.org/2000/svg">
<g clip-path="url(#clip0_0_232)">
<path d="M27.8906 0C12.512 0 0 12.5606 0 28C0 43.4394 12.512 56 27.8906 56C34.7454 56 37.117 52.7452 37.9206 50.8056C39.1148 47.9221 38.3684 44.328 36.1052 42.065C34.5463 40.5059 34.5463 37.9706 36.1052 36.4116C37.6622 34.8548 40.2731 34.8492 41.8351 36.4116C44.1482 38.7243 47.7857 39.5019 50.6821 38.3021C56.5307 35.8793 55.8325 27.6847 55.8906 27.5078L55.8902 27.4775C55.6129 12.3823 43.2091 0 27.8906 0ZM49.4268 35.2709C47.5474 36.0493 45.3082 35.2439 44.1555 34.0916C41.3135 31.2492 36.627 31.2496 33.7854 34.0916C30.9438 36.9329 30.9438 41.5437 33.7854 44.3854C34.9247 45.5248 35.6704 47.6649 34.8893 49.5498C34.0425 51.5934 31.5572 52.7188 27.8906 52.7188C14.3209 52.7188 3.28125 41.63 3.28125 28C3.28125 14.37 14.3209 3.28125 27.8906 3.28125C41.2698 3.28125 52.3556 14.1547 52.6094 27.5231C52.5744 27.7373 52.9973 33.7917 49.4268 35.2709Z" fill="#FB8B24"/>
<path d="M39.4844 24.7188C39.4844 27.4327 41.6924 29.6406 44.4062 29.6406C47.1201 29.6406 49.3281 27.4326 49.3281 24.7188C49.3281 22.0049 47.1201 19.7969 44.4062 19.7969C41.6924 19.7969 39.4844 22.0049 39.4844 24.7188ZM46.0469 24.7188C46.0469 25.6233 45.3108 26.3594 44.4062 26.3594C43.5017 26.3594 42.7656 25.6233 42.7656 24.7188C42.7656 23.8142 43.5017 23.0781 44.4062 23.0781C45.3108 23.0781 46.0469 23.8142 46.0469 24.7188ZM24.6094 6.67188C21.8955 6.67188 19.6875 8.87994 19.6875 11.5938C19.6875 14.3076 21.8956 16.5156 24.6094 16.5156C27.3232 16.5156 29.5312 14.3076 29.5312 11.5938C29.5312 8.87994 27.3232 6.67188 24.6094 6.67188ZM24.6094 13.2344C23.7048 13.2344 22.9688 12.4983 22.9688 11.5938C22.9688 10.6892 23.7048 9.95312 24.6094 9.95312C25.5139 9.95312 26.25 10.6892 26.25 11.5938C26.25 12.4983 25.5139 13.2344 24.6094 13.2344ZM14.7656 26.3594C17.4795 26.3594 19.6875 24.1513 19.6875 21.4375C19.6875 18.7237 17.4794 16.5156 14.7656 16.5156C12.0518 16.5156 9.84375 18.7237 9.84375 21.4375C9.84375 24.1513 12.0518 26.3594 14.7656 26.3594ZM14.7656 19.7969C15.6702 19.7969 16.4062 20.533 16.4062 21.4375C16.4062 22.342 15.6702 23.0781 14.7656 23.0781C13.8611 23.0781 13.125 22.342 13.125 21.4375C13.125 20.533 13.8611 19.7969 14.7656 19.7969ZM14.7656 29.6406C12.0517 29.6406 9.84375 31.8487 9.84375 34.5625C9.84375 37.2763 12.0518 39.4844 14.7656 39.4844C17.4794 39.4844 19.6875 37.2763 19.6875 34.5625C19.6875 31.8487 17.4794 29.6406 14.7656 29.6406ZM14.7656 36.2031C13.8611 36.2031 13.125 35.467 13.125 34.5625C13.125 33.658 13.8611 32.9219 14.7656 32.9219C15.6702 32.9219 16.4062 33.658 16.4062 34.5625C16.4062 35.467 15.6702 36.2031 14.7656 36.2031ZM24.6094 39.4844C21.8955 39.4844 19.6875 41.6924 19.6875 44.4062C19.6875 47.1201 21.8956 49.3281 24.6094 49.3281C27.3232 49.3281 29.5312 47.1201 29.5312 44.4062C29.5312 41.6924 27.3232 39.4844 24.6094 39.4844ZM24.6094 46.0469C23.7048 46.0469 22.9688 45.3108 22.9688 44.4062C22.9688 43.5017 23.7048 42.7656 24.6094 42.7656C25.5139 42.7656 26.25 43.5017 26.25 44.4062C26.25 45.3108 25.5139 46.0469 24.6094 46.0469Z" fill="#FB8B24"/>
</g>
<defs>
<clipPath id="clip0_0_232">
<rect width="56" height="56" fill="white"/>
</clipPath>
</defs>
</svg>
