<svg width="28" height="28" viewBox="0 0 28 28" fill="none" xmlns="http://www.w3.org/2000/svg">
<path d="M14.0001 14.875C10.3017 14.875 7.29173 11.865 7.29173 8.16666C7.29173 4.46833 10.3017 1.45833 14.0001 1.45833C17.6984 1.45833 20.7084 4.46833 20.7084 8.16666C20.7084 11.865 17.6984 14.875 14.0001 14.875ZM14.0001 3.20833C11.2701 3.20833 9.04173 5.43666 9.04173 8.16666C9.04173 10.8967 11.2701 13.125 14.0001 13.125C16.7301 13.125 18.9584 10.8967 18.9584 8.16666C18.9584 5.43666 16.7301 3.20833 14.0001 3.20833ZM24.0217 26.5417C23.5434 26.5417 23.1467 26.145 23.1467 25.6667C23.1467 21.6417 19.0401 18.375 14.0001 18.375C8.96006 18.375 4.85339 21.6417 4.85339 25.6667C4.85339 26.145 4.45673 26.5417 3.97839 26.5417C3.50006 26.5417 3.10339 26.145 3.10339 25.6667C3.10339 20.685 7.99173 16.625 14.0001 16.625C20.0084 16.625 24.8967 20.685 24.8967 25.6667C24.8967 26.145 24.5001 26.5417 24.0217 26.5417Z" fill="white" stroke="white" stroke-width="0.5"/>
</svg>
