<svg width="56" height="56" viewBox="0 0 56 56" fill="none" xmlns="http://www.w3.org/2000/svg">
<g clip-path="url(#clip0_0_179)">
<path d="M51.5944 16.4786C49.1422 12.8985 44.9264 10.0132 40.1056 8.48412C39.9769 7.67234 39.5966 6.92145 39.0184 6.33732C38.4402 5.75318 37.6932 5.36527 36.8828 5.22826C36.0723 5.09126 35.2394 5.21208 34.5013 5.57369C33.7632 5.9353 33.1572 6.51946 32.7687 7.2438C27.2291 7.03949 22.3475 8.50249 18.5027 11.5589C13.7187 15.3621 10.9016 21.3313 10.3569 28.8209C10.3274 29.2832 10.1438 29.7224 9.83544 30.0682C9.57075 30.3447 3.33112 36.877 1.33787 39.3121C0.99552 39.748 0.744181 40.2482 0.598762 40.7831C0.453342 41.3179 0.416803 41.8766 0.491311 42.4258C0.557775 42.9609 0.734224 43.4765 1.00956 43.9402C1.2849 44.4038 1.65318 44.8055 2.09125 45.1199C6.10312 48.0105 10.0279 44.0962 12.4189 41.6506C16.6346 42.8318 20.0554 45.4656 22.8187 47.5914C23.9356 48.5097 25.1225 49.3396 26.3686 50.0733C27.3284 50.5805 28.3988 50.8426 29.4844 50.8363C35.3032 50.8363 41.6032 43.8472 44.3345 40.4273C44.5393 40.1723 44.8015 39.9693 45.0997 39.8349C45.3979 39.7006 45.7237 39.6387 46.0504 39.6542C47.0404 39.6958 48.2011 39.712 49.5005 39.698C50.8777 39.6869 52.2046 39.179 53.2371 38.2676C54.2697 37.3563 54.9385 36.1028 55.1206 34.7376C56.2104 27.0153 55.1889 21.7259 51.5944 16.4786ZM36.729 6.53287C37.1437 6.61357 37.5324 6.79455 37.8611 7.06001C38.1898 7.32547 38.4485 7.66735 38.6146 8.0558C37.8563 7.86476 37.0885 7.70785 36.3112 7.58505C35.6469 7.48323 34.9795 7.40298 34.3101 7.34443C34.6095 7.01263 34.9894 6.76363 35.4131 6.62147C35.8368 6.47932 36.2901 6.4488 36.729 6.53287ZM53.8208 34.5526C53.6813 35.6062 53.166 36.574 52.3697 37.278C51.5734 37.982 50.5497 38.3748 49.4869 38.3842C48.2108 38.3986 47.0724 38.3842 46.1064 38.3426C45.5735 38.3194 45.0427 38.4218 44.5568 38.6416C44.0708 38.8614 43.6434 39.1924 43.309 39.6079C40.9465 42.5654 32.7902 51.9725 26.9802 48.9122C25.8016 48.2109 24.6779 47.4211 23.6189 46.5497C20.7244 44.3228 17.1321 41.5587 12.5842 40.3332C12.5256 40.3175 12.3266 40.2663 12.3051 40.2606C7.80587 39.1152 4.16762 39.4823 2.56637 41.2441C2.50634 41.3075 2.45955 41.3822 2.42875 41.4639C2.39795 41.5456 2.38376 41.6326 2.38701 41.7199C2.39027 41.8071 2.41089 41.8928 2.44768 41.972C2.48447 42.0512 2.53669 42.1222 2.60128 42.1809C2.66587 42.2397 2.74153 42.2849 2.82383 42.3141C2.90612 42.3432 2.99341 42.3556 3.08056 42.3506C3.16772 42.3456 3.253 42.3232 3.33141 42.2848C3.40982 42.2464 3.47977 42.1928 3.53719 42.127C4.40212 41.1754 6.83112 40.4474 10.9274 41.2892C8.21844 43.9824 5.55625 45.9962 2.85819 44.0564C2.56482 43.847 2.31854 43.5786 2.13521 43.2683C1.95188 42.958 1.83557 42.6127 1.79375 42.2547C1.74117 41.8833 1.76368 41.5051 1.85995 41.1425C1.95622 40.7799 2.12428 40.4403 2.35419 40.1438C4.31462 37.7472 10.7187 31.0421 10.7931 30.9655C11.3062 30.3998 11.6137 29.6777 11.6659 28.9158C12.1835 21.8021 14.8299 16.1552 19.3196 12.5866C23.6687 9.12724 29.4766 7.84537 36.1086 8.88137C42.1111 9.81762 47.6302 13.0127 50.512 17.2192C54.4727 23.0026 54.6993 28.3313 53.8208 34.5526Z" fill="#FB8B24" stroke="#FB8B24"/>
<path d="M42.2021 38.8313C42.1172 38.8313 42.0331 38.8148 41.9545 38.7827C38.9196 37.4938 35.975 36.0019 33.1406 34.3171C29.4586 32.2272 25.9814 30.2532 21.5687 29.2176C18.7229 28.5566 15.7697 28.5033 12.9019 29.061C12.8173 29.0776 12.7303 29.0774 12.6458 29.0604C12.5613 29.0434 12.481 29.0099 12.4095 28.9618C12.3379 28.9137 12.2765 28.8521 12.2288 28.7803C12.1811 28.7085 12.148 28.628 12.1314 28.5435C12.1148 28.4589 12.115 28.3719 12.1321 28.2874C12.1491 28.2029 12.1826 28.1226 12.2307 28.051C12.2787 27.9795 12.3404 27.9181 12.4122 27.8704C12.484 27.8227 12.5644 27.7896 12.649 27.773C15.6996 27.1785 18.8414 27.2354 21.8684 27.9401C26.4622 29.0186 30.0212 31.0376 33.7872 33.1757C36.5731 34.832 39.4671 36.2992 42.4497 37.5673C42.5907 37.6248 42.7072 37.7294 42.7795 37.8633C42.8518 37.9972 42.8753 38.1521 42.846 38.3014C42.8167 38.4507 42.7364 38.5852 42.6188 38.6819C42.5013 38.7785 42.3543 38.8313 42.2021 38.8313Z" fill="#FB8B24" stroke="#FB8B24"/>
</g>
<defs>
<clipPath id="clip0_0_179">
<rect width="56" height="56" fill="white"/>
</clipPath>
</defs>
</svg>
