<svg width="28" height="28" viewBox="0 0 28 28" fill="none" xmlns="http://www.w3.org/2000/svg">
<g clip-path="url(#clip0_0_38)">
<path d="M27.6579 26.0084L19.6955 18.046C21.2378 16.1409 22.1664 13.7201 22.1664 11.0834C22.1664 4.9725 17.1941 0.000198364 11.0832 0.000198364C4.97225 0.000198364 0 4.97245 0 11.0834C0 17.1943 4.9723 22.1666 11.0832 22.1666C13.7199 22.1666 16.1407 21.238 18.0458 19.6957L26.0082 27.6581C26.2357 27.8856 26.5344 27.9999 26.8331 27.9999C27.1318 27.9999 27.4304 27.8856 27.6579 27.6581C28.1141 27.2019 28.1141 26.4646 27.6579 26.0084ZM11.0832 19.8333C6.25794 19.8333 2.33333 15.9087 2.33333 11.0834C2.33333 6.25808 6.25794 2.33347 11.0832 2.33347C15.9085 2.33347 19.8332 6.25808 19.8332 11.0834C19.8332 15.9087 15.9085 19.8333 11.0832 19.8333Z" fill="black"/>
</g>
<defs>
<clipPath id="clip0_0_38">
<rect width="28" height="28" fill="white"/>
</clipPath>
</defs>
</svg>
