<svg width="56" height="56" viewBox="0 0 56 56" fill="none" xmlns="http://www.w3.org/2000/svg">
<g clip-path="url(#clip0_0_191)">
<path fill-rule="evenodd" clip-rule="evenodd" d="M21.1113 18.1814C18.0212 18.1814 14.9363 17.8171 11.8875 17.0898C11.7391 17.0437 11.6137 16.943 11.5368 16.8079C11.4599 16.6729 11.4372 16.5137 11.4733 16.3625C11.5095 16.2113 11.6017 16.0796 11.7314 15.9939C11.8611 15.9083 12.0185 15.8752 12.1717 15.9013C17.3246 17.1372 22.6777 17.292 27.8934 16.356C27.9643 16.3434 28.037 16.3434 28.1079 16.356C33.354 17.29 38.6428 17.1376 43.827 15.9013C43.9802 15.8752 44.1376 15.9083 44.2673 15.9939C44.397 16.0796 44.4892 16.2113 44.5254 16.3625C44.5615 16.5137 44.5388 16.6729 44.4619 16.8079C44.385 16.943 44.2596 17.0437 44.1112 17.0898C38.8318 18.3559 33.3483 18.5221 28.0019 17.5781C25.7269 17.9787 23.4213 18.1805 21.1113 18.1814ZM21.1113 27.1493C18.0212 27.1493 14.9363 26.785 11.8875 26.0577C11.7391 26.0117 11.6137 25.9109 11.5368 25.7759C11.4599 25.6409 11.4372 25.4816 11.4733 25.3305C11.5095 25.1793 11.6017 25.0476 11.7314 24.9619C11.8611 24.8763 12.0185 24.8431 12.1717 24.8692C17.3246 26.105 22.6777 26.2599 27.8934 25.324C27.9644 25.3114 28.0369 25.3114 28.1079 25.324C33.354 26.258 38.6428 26.1055 43.827 24.8692C43.9054 24.8495 43.9869 24.8456 44.0668 24.8576C44.1468 24.8697 44.2235 24.8974 44.2926 24.9393C44.3617 24.9812 44.4219 25.0364 44.4695 25.1017C44.5171 25.167 44.5513 25.2411 44.5701 25.3198C44.5889 25.3984 44.592 25.4799 44.579 25.5597C44.5661 25.6395 44.5374 25.7159 44.4947 25.7846C44.4521 25.8532 44.3962 25.9127 44.3303 25.9596C44.2645 26.0065 44.19 26.0398 44.1112 26.0577C38.8318 27.324 33.3483 27.4902 28.0019 26.546C25.7269 26.9467 23.4213 27.1485 21.1113 27.1493Z" fill="#FB8B24" stroke="#FB8B24" stroke-width="0.5"/>
<path fill-rule="evenodd" clip-rule="evenodd" d="M9.06096 17.4633C7.34281 17.4633 6.08456 17.0176 5.24486 16.121C5.13419 16.0027 5.07508 15.8452 5.08054 15.6832C5.08599 15.5213 5.15555 15.3681 5.27393 15.2574C5.3923 15.1468 5.54979 15.0877 5.71174 15.0931C5.8737 15.0986 6.02686 15.1681 6.13752 15.2865C7.08832 16.3019 9.02866 16.5073 11.9043 15.8975C12.059 15.8738 12.2168 15.9101 12.3456 15.9991C12.4743 16.088 12.564 16.2229 12.5964 16.376C12.6288 16.529 12.6014 16.6887 12.5198 16.8222C12.4382 16.9557 12.3085 17.0529 12.1575 17.0938C10.9948 17.3392 9.96395 17.4633 9.06096 17.4633ZM9.97558 26.2374C7.50816 26.2374 5.06659 25.5657 2.93376 24.2777C2.795 24.1938 2.69526 24.0582 2.6565 23.9007C2.61774 23.7432 2.64312 23.5768 2.72706 23.438C2.811 23.2993 2.94663 23.1995 3.1041 23.1608C3.26158 23.122 3.428 23.1474 3.56676 23.2313C6.07551 24.7453 9.03934 25.3219 11.9327 24.859C12.012 24.8463 12.0931 24.8493 12.1712 24.8679C12.2494 24.8865 12.3231 24.9203 12.3881 24.9674C12.4532 25.0145 12.5084 25.074 12.5505 25.1424C12.5926 25.2108 12.6208 25.2868 12.6335 25.3661C12.6463 25.4454 12.6432 25.5264 12.6246 25.6046C12.6061 25.6827 12.5722 25.7564 12.5252 25.8215C12.4781 25.8866 12.4186 25.9418 12.3502 25.9839C12.2818 26.026 12.2058 26.0542 12.1265 26.0669C11.4121 26.1819 10.6926 26.2374 9.97558 26.2374ZM10.8579 35.0814C7.91768 35.0814 5.01879 34.3696 2.4041 32.9964C2.26054 32.921 2.15281 32.7917 2.1046 32.6369C2.05639 32.482 2.07165 32.3144 2.14703 32.1709C2.2224 32.0273 2.35172 31.9196 2.50653 31.8714C2.66133 31.8232 2.82895 31.8384 2.97251 31.9138C5.74422 33.3706 8.86533 34.031 11.9896 33.8218C12.0696 33.8161 12.1501 33.8262 12.2262 33.8517C12.3023 33.8772 12.3727 33.9176 12.4331 33.9704C12.4935 34.0233 12.5429 34.0876 12.5783 34.1597C12.6137 34.2317 12.6344 34.3101 12.6394 34.3902C12.6448 34.4703 12.6344 34.5506 12.6088 34.6265C12.5831 34.7025 12.5427 34.7727 12.4899 34.8331C12.4372 34.8934 12.373 34.9428 12.3011 34.9783C12.2292 35.0138 12.151 35.0348 12.0709 35.04C11.6679 35.0685 11.2635 35.0814 10.8579 35.0814ZM9.4653 44.256C6.71239 44.256 4.02149 43.4422 1.68713 41.8713C1.56102 41.7774 1.47587 41.6385 1.44934 41.4835C1.4228 41.3285 1.45691 41.1693 1.54459 41.0388C1.63228 40.9082 1.76682 40.8164 1.92033 40.7824C2.07385 40.7484 2.23458 40.7747 2.36922 40.8559C3.75361 41.7931 5.30968 42.4473 6.94788 42.7807C8.58607 43.1142 10.274 43.1203 11.9146 42.7988C11.9935 42.7837 12.0746 42.7842 12.1533 42.8003C12.232 42.8165 12.3067 42.848 12.3733 42.893C12.4398 42.9381 12.4968 42.9958 12.541 43.0628C12.5852 43.1299 12.6158 43.205 12.631 43.2839C12.6461 43.3628 12.6456 43.4439 12.6295 43.5226C12.6133 43.6013 12.5818 43.676 12.5368 43.7426C12.4917 43.8091 12.434 43.8661 12.367 43.9103C12.2999 43.9545 12.2248 43.9851 12.1459 44.0003C11.2532 44.1708 10.3554 44.256 9.4653 44.256Z" fill="#FB8B24" stroke="#FB8B24" stroke-width="0.5"/>
<path fill-rule="evenodd" clip-rule="evenodd" d="M9.24312 53.2496C6.60389 53.2496 3.99566 52.5507 1.68585 51.1956C1.57916 51.1334 1.49398 51.0401 1.44169 50.9282C0.426303 48.7605 0.412093 45.6303 1.40164 41.3621C0.658835 38.0162 0.871988 35.0062 2.03981 32.4045C1.45461 30.1954 1.65743 27.2565 2.64181 23.66C2.77616 20.2883 3.62103 17.5108 5.15444 15.4026C6.98498 10.947 8.88528 8.57131 11.1357 7.9228C11.2129 7.90058 11.2937 7.89378 11.3735 7.90278C11.4533 7.91179 11.5306 7.93643 11.6009 7.9753C11.6712 8.01416 11.7331 8.0665 11.7832 8.1293C11.8332 8.19211 11.8705 8.26417 11.8927 8.34136C11.9149 8.41855 11.9217 8.49936 11.9127 8.57918C11.9037 8.659 11.8791 8.73626 11.8402 8.80655C11.8013 8.87685 11.749 8.9388 11.6862 8.98887C11.6234 9.03894 11.5513 9.07615 11.4741 9.09838C9.62679 9.62803 7.92156 11.8655 6.25767 15.9348C6.23828 15.9814 6.21357 16.0256 6.18404 16.0666C4.75785 17.994 3.97757 20.588 3.86002 23.7763C3.85913 23.8243 3.85219 23.8721 3.83935 23.9184C2.86659 27.4451 2.67669 30.2587 3.27481 32.2818C3.3168 32.4257 3.30486 32.58 3.24122 32.7158C2.09407 35.1471 1.88737 38.0111 2.62372 41.2265C2.64484 41.3174 2.64484 41.412 2.62372 41.5029C1.7091 45.3901 1.65872 48.3277 2.47258 50.2383C5.33332 51.8639 8.68357 52.4054 11.9108 51.764C12.0701 51.7325 12.2354 51.7655 12.3703 51.8559C12.5053 51.9463 12.5988 52.0865 12.6303 52.2459C12.6618 52.4052 12.6288 52.5705 12.5384 52.7054C12.4481 52.8404 12.3078 52.9339 12.1485 52.9654C11.1848 53.1553 10.2107 53.2496 9.24182 53.2496H9.24312Z" fill="#FB8B24" stroke="#FB8B24" stroke-width="0.5"/>
<path fill-rule="evenodd" clip-rule="evenodd" d="M21.1112 36.1161C18.0212 36.1161 14.9363 35.7518 11.8875 35.0245C11.8087 35.0066 11.7342 34.9733 11.6684 34.9264C11.6025 34.8795 11.5466 34.82 11.504 34.7514C11.4613 34.6827 11.4326 34.6063 11.4197 34.5265C11.4067 34.4467 11.4098 34.3652 11.4286 34.2866C11.4474 34.2079 11.4816 34.1338 11.5292 34.0685C11.5768 34.0032 11.637 33.948 11.7061 33.9061C11.7752 33.8642 11.8519 33.8365 11.9319 33.8244C12.0118 33.8124 12.0933 33.8163 12.1717 33.836C17.3245 35.0723 22.6776 35.2275 27.8934 34.2921C27.9643 34.2793 28.0369 34.2793 28.1079 34.2921C33.354 35.2261 38.6428 35.0736 43.827 33.8373C43.9054 33.8176 43.9869 33.8137 44.0668 33.8257C44.1467 33.8378 44.2235 33.8655 44.2926 33.9074C44.3617 33.9493 44.4218 34.0045 44.4695 34.0698C44.5171 34.1351 44.5513 34.2092 44.5701 34.2878C44.5889 34.3665 44.5919 34.448 44.579 34.5278C44.5661 34.6076 44.5374 34.684 44.4947 34.7527C44.452 34.8213 44.3962 34.8808 44.3303 34.9277C44.2645 34.9746 44.19 35.0079 44.1112 35.0258C38.8319 36.2926 33.3483 36.4589 28.0019 35.5141C25.7268 35.9143 23.4213 36.1157 21.1112 36.1161ZM21.1112 45.0841C18.0212 45.0841 14.9363 44.7198 11.8875 43.9925C11.8087 43.9746 11.7342 43.9412 11.6684 43.8943C11.6025 43.8474 11.5466 43.788 11.504 43.7193C11.4613 43.6507 11.4326 43.5743 11.4197 43.4945C11.4067 43.4147 11.4098 43.3331 11.4286 43.2545C11.4474 43.1759 11.4816 43.1018 11.5292 43.0365C11.5768 42.9712 11.637 42.916 11.7061 42.8741C11.7752 42.8322 11.8519 42.8044 11.9319 42.7924C12.0118 42.7804 12.0933 42.7843 12.1717 42.804C17.3245 44.0407 22.6779 44.1951 27.8934 43.2574C27.9643 43.2447 28.0369 43.2447 28.1079 43.2574C33.354 44.194 38.6428 44.0416 43.827 42.804C43.9054 42.7843 43.9869 42.7804 44.0668 42.7924C44.1467 42.8044 44.2235 42.8322 44.2926 42.8741C44.3617 42.916 44.4218 42.9712 44.4695 43.0365C44.5171 43.1018 44.5513 43.1759 44.5701 43.2545C44.5889 43.3331 44.5919 43.4147 44.579 43.4945C44.5661 43.5743 44.5374 43.6507 44.4947 43.7193C44.452 43.788 44.3962 43.8474 44.3303 43.8943C44.2645 43.9412 44.19 43.9746 44.1112 43.9925C38.8318 45.2586 33.3483 45.4248 28.0019 44.4808C25.7269 44.8814 23.4213 45.0832 21.1112 45.0841Z" fill="#FB8B24" stroke="#FB8B24" stroke-width="0.5"/>
<path fill-rule="evenodd" clip-rule="evenodd" d="M28.0006 53.4396C27.8386 53.4396 27.6831 53.3753 27.5686 53.2607C27.454 53.1461 27.3896 52.9907 27.3896 52.8286V3.77095C27.3896 3.60889 27.454 3.45347 27.5686 3.33888C27.6831 3.22429 27.8386 3.15991 28.0006 3.15991C28.1627 3.15991 28.3181 3.22429 28.4327 3.33888C28.5473 3.45347 28.6117 3.60889 28.6117 3.77095V52.8286C28.6117 52.9907 28.5473 53.1461 28.4327 53.2607C28.3181 53.3753 28.1627 53.4396 28.0006 53.4396ZM46.9403 17.4632C46.036 17.4632 45.0051 17.3404 43.8425 17.0924C43.7624 17.0773 43.6863 17.0463 43.6184 17.0014C43.5505 16.9564 43.4923 16.8983 43.4471 16.8305C43.402 16.7627 43.3709 16.6866 43.3556 16.6066C43.3404 16.5266 43.3412 16.4444 43.3582 16.3647C43.3752 16.2851 43.4079 16.2096 43.4544 16.1428C43.501 16.0759 43.5604 16.0191 43.6292 15.9756C43.6981 15.932 43.7749 15.9027 43.8552 15.8893C43.9355 15.8759 44.0177 15.8787 44.097 15.8975C46.9726 16.5072 48.9129 16.3018 49.8624 15.2864C49.9173 15.2278 49.9832 15.1806 50.0563 15.1474C50.1295 15.1143 50.2084 15.0959 50.2887 15.0932C50.3689 15.0906 50.4489 15.1038 50.5241 15.132C50.5992 15.1603 50.6681 15.2031 50.7267 15.258C50.7853 15.3129 50.8325 15.3788 50.8657 15.4519C50.8988 15.525 50.9172 15.604 50.9199 15.6842C50.9225 15.7645 50.9093 15.8445 50.8811 15.9196C50.8528 15.9948 50.81 16.0636 50.7551 16.1222C49.9154 17.0175 48.6572 17.4632 46.9403 17.4632ZM46.0244 26.2374C45.3074 26.2374 44.5879 26.1818 43.8735 26.0668C43.7219 26.0322 43.5892 25.9412 43.5023 25.8123C43.4153 25.6834 43.3807 25.5263 43.4053 25.3728C43.43 25.2193 43.5121 25.0809 43.635 24.9857C43.7579 24.8906 43.9125 24.8457 44.0672 24.8603C46.9608 25.323 49.9247 24.7459 52.4332 23.2312C52.572 23.1473 52.7384 23.1219 52.8959 23.1607C53.0533 23.1994 53.189 23.2992 53.2729 23.4379C53.3568 23.5767 53.3822 23.7431 53.3435 23.9006C53.3047 24.0581 53.205 24.1937 53.0662 24.2776C50.9412 25.5599 48.5063 26.2375 46.0244 26.2374ZM45.1434 35.0813C44.7377 35.0813 44.3347 35.0684 43.929 35.04C43.8489 35.0347 43.7706 35.0137 43.6986 34.9781C43.6266 34.9425 43.5624 34.893 43.5095 34.8325C43.4567 34.772 43.4164 34.7017 43.3908 34.6255C43.3653 34.5494 43.355 34.469 43.3606 34.3889C43.3826 34.053 43.6707 33.7959 44.0104 33.8205C47.1354 34.0284 50.2539 33.3709 53.0275 31.9137C53.171 31.8383 53.3386 31.8231 53.4934 31.8713C53.6482 31.9195 53.7776 32.0272 53.8529 32.1708C53.9283 32.3143 53.9436 32.482 53.8954 32.6368C53.8472 32.7916 53.7394 32.9209 53.5959 32.9963C50.9889 34.3657 48.0882 35.0813 45.1434 35.0813ZM46.5347 44.2559C45.6446 44.2559 44.7468 44.1707 43.8541 43.9989C43.6948 43.968 43.5542 43.8752 43.4634 43.7407C43.3725 43.6063 43.3388 43.4412 43.3697 43.2819C43.4005 43.1226 43.4934 42.982 43.6278 42.8912C43.7623 42.8003 43.9273 42.7666 44.0866 42.7975C45.7269 43.1192 47.4147 43.1134 49.0527 42.7801C50.6907 42.4469 52.2466 41.7929 53.6307 40.8558C53.6974 40.811 53.7723 40.7797 53.851 40.7637C53.9298 40.7478 54.0109 40.7475 54.0898 40.7629C54.1687 40.7783 54.2438 40.8091 54.3107 40.8535C54.3777 40.898 54.4353 40.9552 54.4801 41.0218C54.525 41.0885 54.5563 41.1633 54.5722 41.2421C54.5882 41.3209 54.5885 41.402 54.573 41.4809C54.5576 41.5598 54.5268 41.6348 54.4824 41.7018C54.438 41.7688 54.3808 41.8263 54.3141 41.8712C52.0171 43.4248 49.3077 44.2554 46.5347 44.2559Z" fill="#FB8B24" stroke="#FB8B24" stroke-width="0.5"/>
<path fill-rule="evenodd" clip-rule="evenodd" d="M46.7569 53.2511C45.788 53.2511 44.814 53.1568 43.8503 52.9669C43.7714 52.9512 43.6963 52.9201 43.6295 52.8754C43.5626 52.8307 43.5052 52.7733 43.4605 52.7064C43.4158 52.6395 43.3847 52.5645 43.369 52.4856C43.3533 52.4068 43.3533 52.3256 43.369 52.2467C43.3847 52.1678 43.4158 52.0928 43.4605 52.0259C43.5052 51.959 43.5626 51.9016 43.6295 51.8569C43.6964 51.8122 43.7714 51.7811 43.8503 51.7655C43.9292 51.7498 44.0104 51.7498 44.0892 51.7655C47.3227 52.4062 50.666 51.8649 53.5274 50.2385C54.3413 48.3266 54.2922 45.3902 53.3763 41.5031C53.3546 41.4122 53.3546 41.3175 53.3763 41.2266C54.1126 38.0112 53.9059 35.1472 52.7588 32.716C52.6953 32.5802 52.6833 32.4259 52.7252 32.2819C53.3246 30.2602 53.1347 27.4453 52.1607 23.9172C52.1481 23.8709 52.1411 23.8232 52.14 23.7751C52.0224 20.5882 51.2422 17.9942 49.8173 16.0667C49.7869 16.0261 49.7618 15.9818 49.7423 15.935C48.0772 11.8579 46.3706 9.62174 44.5298 9.09984C44.3809 9.04956 44.257 8.94398 44.1838 8.80493C44.1106 8.66589 44.0937 8.50403 44.1365 8.35284C44.1793 8.20165 44.2786 8.07271 44.4139 7.9927C44.5491 7.91268 44.7099 7.88772 44.8631 7.92297C47.1096 8.56114 49.0124 10.9381 50.8456 15.4027C52.379 17.5084 53.2251 20.2885 53.3582 23.6602C54.3426 27.2567 54.5454 30.1969 53.9602 32.4046C55.1267 35.0051 55.3412 38.0177 54.5984 41.3623C55.5879 45.6305 55.5737 48.7606 54.5583 50.9283C54.5058 51.0405 54.4201 51.1338 54.3129 51.1958C52.022 52.5409 49.4135 53.2513 46.7569 53.2511ZM28.0007 8.82855C24.5338 8.83471 21.1219 7.96274 18.0832 6.29396C17.9424 6.21618 17.8379 6.08613 17.7922 5.9319C17.7465 5.77768 17.7633 5.61168 17.839 5.46976L19.8207 1.77639C19.8992 1.6369 20.0293 1.53377 20.183 1.48916C20.3367 1.44455 20.5017 1.46203 20.6427 1.53784C20.7837 1.61365 20.8892 1.74173 20.9368 1.89456C20.9843 2.04739 20.9699 2.21277 20.8968 2.35514L19.2071 5.50723C24.6845 8.30665 31.3155 8.30665 36.7929 5.50723L35.1006 2.35514C35.0239 2.21192 35.0072 2.04409 35.0542 1.88855C35.1012 1.73302 35.208 1.60252 35.3512 1.52577C35.4944 1.44903 35.6623 1.43232 35.8178 1.47932C35.9734 1.52632 36.1038 1.63318 36.1806 1.77639L38.161 5.47106C38.2363 5.61284 38.2529 5.77854 38.2072 5.93245C38.1616 6.08636 38.0573 6.21618 37.9168 6.29396C34.8785 7.96268 31.4671 8.83466 28.0007 8.82855Z" fill="#FB8B24" stroke="#FB8B24" stroke-width="0.5"/>
<path fill-rule="evenodd" clip-rule="evenodd" d="M22.0672 2.1161C25.8986 3.51575 30.1014 3.51575 33.9328 2.1161C30.067 0.926543 25.933 0.926543 22.0672 2.1161ZM27.9993 4.38974C25.3046 4.38974 22.6098 3.79937 20.0984 2.61863C19.9902 2.56788 19.8992 2.48647 19.8367 2.3845C19.7743 2.28253 19.7431 2.16448 19.7471 2.04497C19.7511 1.92546 19.79 1.80975 19.8592 1.71217C19.9283 1.61459 20.0245 1.53944 20.1359 1.49602C25.1888 -0.499324 30.8112 -0.499324 35.8641 1.49602C35.9759 1.53898 36.0727 1.61395 36.1422 1.71157C36.2117 1.80919 36.2509 1.92513 36.2549 2.04491C36.2589 2.16468 36.2275 2.28297 36.1647 2.38501C36.1018 2.48705 36.0103 2.5683 35.9015 2.61863C33.4299 3.78326 30.7316 4.38889 27.9993 4.38974ZM21.1112 54.052C18.0212 54.052 14.9362 53.6877 11.8875 52.9604C11.7902 52.9369 11.7002 52.8899 11.6254 52.8234C11.5506 52.757 11.4933 52.6731 11.4586 52.5793C10.3572 49.6226 10.3297 46.373 11.3811 43.3982C10.3561 40.4967 10.3561 37.3317 11.3811 34.4302C10.3564 31.5296 10.3564 28.3654 11.3811 25.4648C10.3398 22.5182 10.3562 19.301 11.4276 16.3651C11.6198 13.7776 11.3783 11.1762 10.7132 8.66832C10.6797 8.53988 10.6886 8.40403 10.7387 8.28109C10.7887 8.15815 10.8773 8.05471 10.991 7.98623C11.5297 7.66585 12.1523 7.46045 13.0153 7.17753C14.1508 6.80548 15.7036 6.29779 18.1271 5.20102C18.2003 5.16794 18.2793 5.1496 18.3596 5.14705C18.4399 5.1445 18.5199 5.15779 18.595 5.18616C18.6702 5.21453 18.739 5.25742 18.7976 5.31239C18.8562 5.36736 18.9034 5.43333 18.9364 5.50654C18.9695 5.57974 18.9879 5.65874 18.9904 5.73903C18.993 5.81932 18.9797 5.89933 18.9513 5.97448C18.9229 6.04964 18.88 6.11847 18.8251 6.17704C18.7701 6.23562 18.7041 6.28279 18.6309 6.31588C16.1467 7.43978 14.5577 7.9591 13.3964 8.34019C12.815 8.53009 12.3758 8.67348 12.0167 8.83109C12.6316 11.3566 12.8409 13.9494 12.6394 16.5434C12.6352 16.5999 12.623 16.6556 12.6032 16.7087C11.5782 19.4633 11.5782 22.4946 12.6032 25.2491C12.6549 25.3873 12.6549 25.5385 12.6032 25.6754C11.5779 28.4303 11.5779 31.4621 12.6032 34.217C12.6549 34.3553 12.6549 34.5064 12.6032 34.6434C11.5779 37.3983 11.5779 40.4301 12.6032 43.185C12.6549 43.3232 12.6549 43.4744 12.6032 43.6113C11.6162 46.2613 11.5774 49.1714 12.4934 51.8468C17.5478 53.0134 22.7865 53.1422 27.8921 52.2253C27.9635 52.2126 28.0365 52.2126 28.1079 52.2253C33.2135 53.1421 38.4521 53.0133 43.5066 51.8468C44.4225 49.1718 44.3837 46.2622 43.3968 43.6126C43.346 43.4751 43.346 43.3239 43.3968 43.1863C44.4221 40.4314 44.4221 37.3996 43.3968 34.6446C43.346 34.5071 43.346 34.3559 43.3968 34.2183C44.4221 31.4634 44.4221 28.4316 43.3968 25.6767C43.346 25.5391 43.346 25.3879 43.3968 25.2504C44.4222 22.4955 44.4222 19.4636 43.3968 16.7087C43.3771 16.6556 43.3649 16.5999 43.3606 16.5434C43.1591 13.9559 43.3693 11.3528 43.9833 8.83109C43.6255 8.67348 43.1849 8.53009 42.6036 8.34019C41.4422 7.9591 39.852 7.43848 37.3691 6.31588C37.2959 6.28279 37.2299 6.23562 37.1749 6.17704C37.1199 6.11847 37.0771 6.04964 37.0487 5.97448C37.0203 5.89933 37.007 5.81932 37.0096 5.73903C37.0121 5.65874 37.0305 5.57974 37.0635 5.50654C37.0966 5.43333 37.1438 5.36736 37.2024 5.31239C37.261 5.25742 37.3298 5.21453 37.4049 5.18616C37.4801 5.15779 37.5601 5.1445 37.6404 5.14705C37.7207 5.1496 37.7997 5.16794 37.8729 5.20102C40.2964 6.29779 41.8492 6.80548 42.9847 7.17753C43.8476 7.46045 44.4703 7.66585 45.009 7.98623C45.2415 8.12574 45.3552 8.40349 45.2868 8.66832C44.6215 11.1809 44.3825 13.7711 44.5724 16.3651C45.6446 19.3002 45.6601 22.5194 44.6202 25.4635C45.6454 28.3645 45.6454 31.5292 44.6202 34.4302C45.6454 37.3316 45.6454 40.4968 44.6202 43.3982C45.6704 46.3694 45.6446 49.6223 44.5427 52.5806C44.5076 52.6745 44.4499 52.7584 44.3746 52.8246C44.2993 52.8909 44.2088 52.9375 44.1112 52.9604C38.8318 54.2266 33.3483 54.3928 28.0019 53.4487C25.7269 53.8493 23.4213 54.0511 21.1112 54.052ZM9.02995 56.0014C8.94986 56.0014 8.86847 55.9936 8.7858 55.9807L3.39882 55.0557C2.5307 54.9059 1.9132 54.0093 1.99588 53.0146L2.16124 51.0407C2.18569 50.8883 2.26676 50.7509 2.38822 50.6557C2.50968 50.5606 2.66259 50.5148 2.81636 50.5275C2.97013 50.5402 3.11342 50.6105 3.21758 50.7244C3.32174 50.8382 3.37909 50.9872 3.37815 51.1415L3.21538 53.118C3.18308 53.4861 3.40011 53.8156 3.60422 53.8504L8.99249 54.7754C9.01574 54.7793 9.0855 54.7909 9.17335 54.7237C9.23503 54.6675 9.28495 54.5997 9.32021 54.5241C9.35547 54.4484 9.37537 54.3666 9.37875 54.2832L9.52473 52.5599C9.53843 52.3984 9.61575 52.2489 9.73967 52.1443C9.86359 52.0398 10.024 51.9888 10.1855 52.0025C10.347 52.0162 10.4965 52.0935 10.6011 52.2174C10.7056 52.3413 10.7566 52.5017 10.7429 52.6632L10.5957 54.3866C10.553 54.9162 10.3063 55.3942 9.92262 55.6913C9.65908 55.8941 9.34775 56.0014 9.02995 56.0014ZM46.9713 56.0014C46.6522 56.0014 46.3409 55.8941 46.0774 55.69C45.6937 55.3916 45.4469 54.9149 45.4043 54.3853L45.2622 52.6632C45.2488 52.5017 45.3002 52.3415 45.405 52.2178C45.5098 52.0941 45.6594 52.0171 45.8209 52.0038C45.9825 51.9904 46.1427 52.0418 46.2664 52.1465C46.3901 52.2513 46.4671 52.4009 46.4804 52.5625L46.6225 54.2832C46.6258 54.3663 46.6456 54.4479 46.6806 54.5233C46.7156 54.5986 46.7653 54.6663 46.8266 54.7224C46.9145 54.7909 46.9842 54.7793 47.0075 54.7754L52.3958 53.8504C52.6012 53.8156 52.8169 53.4861 52.7846 53.118L52.6218 51.1415C52.6152 51.0615 52.6244 50.981 52.6489 50.9045C52.6734 50.8281 52.7127 50.7572 52.7646 50.696C52.8165 50.6348 52.8799 50.5843 52.9513 50.5476C53.0227 50.5109 53.1006 50.4886 53.1805 50.482C53.2605 50.4754 53.341 50.4846 53.4175 50.5091C53.4939 50.5336 53.5648 50.5729 53.626 50.6247C53.6872 50.6766 53.7377 50.7401 53.7744 50.8114C53.8111 50.8828 53.8334 50.9607 53.84 51.0407L54.0041 53.0159C54.0868 54.0106 53.4706 54.9072 52.6025 55.0557L47.2142 55.9807C47.1328 55.9936 47.0501 56.0001 46.97 56.0001L46.9713 56.0014Z" fill="#FB8B24" stroke="#FB8B24" stroke-width="0.5"/>
</g>
<defs>
<clipPath id="clip0_0_191">
<rect width="56" height="56" fill="white"/>
</clipPath>
</defs>
</svg>
