<svg width="56" height="56" viewBox="0 0 56 56" fill="none" xmlns="http://www.w3.org/2000/svg">
<path d="M31.3714 25.0938C31.2158 25.0602 31.0576 25.0407 30.8986 25.0356C30.8917 24.9481 30.8815 24.8612 30.8657 24.774C30.7901 24.3567 30.6144 23.9639 30.3537 23.6293C30.0931 23.2947 29.7553 23.0282 29.3692 22.8527L27.3363 21.9287C26.9367 21.7459 26.4975 21.6669 26.0592 21.6988C25.6209 21.7307 25.1978 21.8726 24.8289 22.1114C24.6952 22.1976 24.5695 22.2957 24.4534 22.4046C24.098 22.0984 23.6665 21.8939 23.2045 21.8126C22.7424 21.7312 22.267 21.7761 21.8284 21.9425L19.7376 22.7266C19.3258 22.8799 18.9593 23.1346 18.672 23.4671C18.3847 23.7995 18.1858 24.1991 18.0938 24.6287C18.0602 24.7843 18.0407 24.9425 18.0356 25.1016C17.5678 25.1363 17.118 25.2968 16.7338 25.566C16.3496 25.8352 16.0452 26.2031 15.8527 26.631L14.9286 28.6639C14.7459 29.0635 14.6669 29.5027 14.6989 29.941C14.7308 30.3792 14.8726 30.8023 15.1113 31.1712C15.1975 31.305 15.2957 31.4306 15.4046 31.5467C15.3472 31.6132 15.2932 31.6826 15.2428 31.7545C15.0013 32.1032 14.8477 32.5052 14.7954 32.9262C14.7431 33.3471 14.7936 33.7745 14.9425 34.1717L15.7266 36.2625C15.8799 36.6743 16.1346 37.0408 16.4671 37.3281C16.7996 37.6154 17.1991 37.8143 17.6287 37.9063C17.7842 37.9398 17.9425 37.9592 18.1015 37.9642C18.1363 38.4321 18.2968 38.8818 18.566 39.2661C18.8352 39.6504 19.2031 39.9548 19.631 40.1474L21.6638 41.0714C22.1374 41.2867 22.6643 41.3564 23.1776 41.2717C23.691 41.187 24.1675 40.9516 24.5468 40.5955C24.9031 40.9001 25.3346 41.1036 25.7962 41.1849C26.2579 41.2662 26.7329 41.2222 27.1718 41.0576L29.2626 40.2735C29.6744 40.1202 30.0409 39.8655 30.3282 39.533C30.6155 39.2006 30.8144 38.801 30.9064 38.3714C30.94 38.2159 30.9595 38.0577 30.9646 37.8987C31.4324 37.8637 31.8821 37.7031 32.2663 37.4339C32.6505 37.1647 32.9549 36.7969 33.1475 36.3692L34.0716 34.3362C34.2543 33.9366 34.3333 33.4974 34.3014 33.0592C34.2695 32.6209 34.1276 32.1978 33.889 31.8289C33.8027 31.6951 33.7045 31.5695 33.5956 31.4534C33.653 31.3869 33.707 31.3176 33.7574 31.2456C33.999 30.8969 34.1525 30.4949 34.2048 30.0739C34.2571 29.653 34.2066 29.2256 34.0577 28.8284L33.2736 26.7376C33.1203 26.3258 32.8656 25.9593 32.5331 25.672C32.2006 25.3847 31.8011 25.1858 31.3714 25.0938ZM30.197 27.0407C30.3005 26.9372 30.4284 26.8613 30.5688 26.82C30.7093 26.7787 30.8579 26.7733 31.0009 26.8043C31.144 26.8353 31.277 26.9017 31.3878 26.9974C31.4986 27.0931 31.5836 27.2151 31.635 27.3522L32.4188 29.4428C32.4684 29.5751 32.4853 29.7176 32.4678 29.8579C32.4504 29.9982 32.3993 30.1322 32.3187 30.2484C32.2382 30.3647 32.1307 30.4596 32.0055 30.5252C31.8802 30.5908 31.7409 30.6251 31.5995 30.6251H27.8892C27.8071 30.3085 27.6808 30.005 27.5139 29.7236L30.197 27.0407ZM25.375 24.4004V24.3183C25.375 24.1719 25.4117 24.0278 25.4818 23.8993C25.552 23.7708 25.6532 23.6619 25.7763 23.5826C25.8994 23.5033 26.0404 23.4562 26.1865 23.4456C26.3325 23.435 26.4789 23.4612 26.6121 23.5217L28.6453 24.4454C28.774 24.5039 28.8866 24.5928 28.9735 24.7043C29.0603 24.8158 29.1189 24.9467 29.1441 25.0858C29.1693 25.2249 29.1605 25.3681 29.1183 25.503C29.0761 25.638 29.0019 25.7607 28.9019 25.8606L26.2769 28.4856C25.9954 28.319 25.6918 28.1928 25.375 28.1109V24.4004ZM19.804 24.9992C19.8337 24.8555 19.8996 24.7218 19.9955 24.6108C20.0914 24.4998 20.214 24.4151 20.3518 24.3648L22.4428 23.5808C22.5752 23.5312 22.7176 23.5143 22.858 23.5318C22.9983 23.5492 23.1323 23.6004 23.2485 23.681C23.3647 23.7615 23.4597 23.8691 23.5252 23.9944C23.5908 24.1196 23.625 24.259 23.625 24.4004V28.1109C23.3084 28.193 23.0049 28.3193 22.7235 28.4862L20.0985 25.8612L20.0407 25.8033C19.936 25.7006 19.8593 25.5727 19.8178 25.432C19.7764 25.2913 19.7716 25.1423 19.804 24.9992ZM16.5218 29.3881L17.4453 27.3548C17.5038 27.2261 17.5926 27.1136 17.704 27.0267C17.8155 26.9398 17.9464 26.8813 18.0854 26.856C18.2245 26.8307 18.3675 26.8395 18.5025 26.8816C18.6374 26.9237 18.7601 26.9978 18.8601 27.0977L21.4851 29.7227C21.3185 30.0044 21.1925 30.3082 21.1108 30.6251H17.3183C17.1719 30.6251 17.0279 30.5884 16.8993 30.5183C16.7708 30.4482 16.6619 30.3469 16.5827 30.2238C16.5034 30.1007 16.4563 29.9597 16.4457 29.8137C16.435 29.6677 16.4612 29.5214 16.5218 29.3881ZM18.803 35.9597C18.6995 36.0632 18.5716 36.1391 18.4312 36.1804C18.2907 36.2217 18.1421 36.2271 17.9991 36.1961C17.856 36.1651 17.723 36.0987 17.6122 36.0029C17.5014 35.9072 17.4164 35.7852 17.365 35.6482L16.5813 33.5575C16.5316 33.4251 16.5147 33.2826 16.5322 33.1423C16.5496 33.002 16.6007 32.868 16.6813 32.7518C16.7618 32.6356 16.8693 32.5406 16.9945 32.475C17.1198 32.4094 17.2591 32.3751 17.4005 32.3751H21.111C21.1931 32.6917 21.3195 32.9952 21.4863 33.2766L18.803 35.9597ZM23.625 38.5999V38.6819C23.625 38.8283 23.5883 38.9724 23.5182 39.1009C23.4481 39.2295 23.3468 39.3384 23.2237 39.4176C23.1006 39.4969 22.9596 39.544 22.8135 39.5546C22.6675 39.5653 22.5212 39.5391 22.3879 39.4785L20.3547 38.5548C20.226 38.4963 20.1134 38.4075 20.0265 38.2959C19.9397 38.1844 19.8811 38.0535 19.8559 37.9144C19.8307 37.7753 19.8395 37.6321 19.8817 37.4972C19.9239 37.3623 19.9981 37.2396 20.0981 37.1396L22.7231 34.5146C23.0046 34.6813 23.3083 34.8074 23.625 34.8893V38.5999ZM24.5 33.2501C24.1539 33.2501 23.8155 33.1475 23.5278 32.9552C23.24 32.7629 23.0157 32.4896 22.8832 32.1698C22.7508 31.85 22.7161 31.4982 22.7836 31.1587C22.8512 30.8192 23.0178 30.5074 23.2626 30.2627C23.5073 30.0179 23.8191 29.8513 24.1586 29.7837C24.4981 29.7162 24.8499 29.7509 25.1697 29.8833C25.4895 30.0158 25.7628 30.2401 25.9551 30.5279C26.1474 30.8156 26.25 31.154 26.25 31.5001C26.2495 31.9641 26.0649 32.4089 25.7368 32.7369C25.4088 33.065 24.964 33.2496 24.5 33.2501ZM29.196 38.001C29.1663 38.1447 29.1004 38.2784 29.0045 38.3894C28.9086 38.5004 28.786 38.5851 28.6482 38.6354L26.5573 39.4189C26.425 39.4685 26.2825 39.4854 26.1422 39.468C26.0019 39.4505 25.8679 39.3994 25.7517 39.3188C25.6354 39.2383 25.5405 39.1308 25.4749 39.0056C25.4093 38.8803 25.375 38.741 25.375 38.5996V34.8893C25.6916 34.8072 25.9951 34.6809 26.2765 34.514L28.9015 37.139L28.9026 37.14L28.9594 37.197C29.0641 37.2998 29.1408 37.4276 29.1822 37.5683C29.2236 37.709 29.2284 37.858 29.196 38.001ZM32.4783 33.6121L31.5547 35.6454C31.4962 35.7741 31.4074 35.8866 31.296 35.9735C31.1845 36.0604 31.0536 36.119 30.9146 36.1442C30.7756 36.1695 30.6325 36.1607 30.4976 36.1186C30.3626 36.0765 30.2399 36.0024 30.1399 35.9026L27.5149 33.2776C27.6815 32.9958 27.8075 32.692 27.8892 32.3751H31.6817C31.8281 32.3751 31.9721 32.4118 32.1007 32.482C32.2292 32.5521 32.3381 32.6533 32.4173 32.7764C32.4966 32.8995 32.5437 33.0405 32.5543 33.1865C32.565 33.3325 32.5388 33.4789 32.4783 33.6121Z" fill="#FB8B24"/>
<path d="M53.5872 22.7763C52.4988 22.5041 51.092 21.9159 50.5712 20.6585C50.1048 19.532 50.426 17.9908 51.5009 16.2003C52.879 13.9034 53.2061 10.658 52.3796 8.35811L52.7569 7.98077C53.2484 7.4881 53.5245 6.8206 53.5245 6.12467C53.5245 5.42875 53.2484 4.76124 52.7569 4.26858L52.6068 4.11841C52.1141 3.62684 51.4465 3.35078 50.7505 3.35078C50.0546 3.35078 49.387 3.62684 48.8943 4.11841L47.77 5.24289C46.3857 5.19422 45.4075 4.85789 44.9299 4.26136C44.433 3.64022 44.5909 2.87689 44.6018 2.82855C44.6546 2.60403 44.6165 2.36776 44.496 2.17113C44.3755 1.97449 44.1822 1.8334 43.9582 1.77854C43.7341 1.72367 43.4975 1.75947 43.2998 1.87815C43.102 1.99682 42.9591 2.18878 42.9021 2.41227C42.7548 3.00158 42.7232 4.27798 43.5393 5.32339C44.1234 6.07141 45.014 6.57027 46.1955 6.81745L45.7572 7.25572C45.7374 7.27571 45.7185 7.29662 45.7006 7.31839L45.6982 7.32134L45.6967 7.3232L39.7074 14.5951C36.4306 11.6369 32.3619 9.69916 28 9.01939V7.00011H29.9005C30.1069 7.58392 30.5131 8.07597 31.0472 8.38929C31.5813 8.7026 32.209 8.81702 32.8193 8.71231C33.4296 8.60759 33.9832 8.2905 34.3823 7.81706C34.7815 7.34363 35.0004 6.74434 35.0004 6.12511C35.0004 5.50588 34.7815 4.90659 34.3823 4.43316C33.9832 3.95972 33.4296 3.64263 32.8193 3.53791C32.209 3.4332 31.5813 3.54761 31.0472 3.86093C30.5131 4.17425 30.1069 4.6663 29.9005 5.25011H28V4.37511C28 4.14305 27.9078 3.92049 27.7437 3.75639C27.5796 3.5923 27.3571 3.50011 27.125 3.50011C26.8929 3.50011 26.6704 3.5923 26.5063 3.75639C26.3422 3.92049 26.25 4.14305 26.25 4.37511V5.25011H22.75V4.37511C22.75 4.14305 22.6578 3.92049 22.4937 3.75639C22.3296 3.5923 22.1071 3.50011 21.875 3.50011C21.6429 3.50011 21.4204 3.5923 21.2563 3.75639C21.0922 3.92049 21 4.14305 21 4.37511V5.25011H19.25C19.25 5.01805 19.1578 4.79549 18.9937 4.63139C18.8296 4.4673 18.6071 4.37511 18.375 4.37511C18.1429 4.37511 17.9204 4.4673 17.7563 4.63139C17.5922 4.79549 17.5 5.01805 17.5 5.25011H15.75C15.5179 5.25011 15.2954 5.3423 15.1313 5.50639C14.9672 5.67049 14.875 5.89304 14.875 6.12511C14.875 6.35717 14.9672 6.57973 15.1313 6.74383C15.2954 6.90792 15.5179 7.00011 15.75 7.00011H17.5C17.5 7.23217 17.5922 7.45473 17.7563 7.61883C17.9204 7.78292 18.1429 7.87511 18.375 7.87511C18.6071 7.87511 18.8296 7.78292 18.9937 7.61883C19.1578 7.45473 19.25 7.23217 19.25 7.00011H21V9.01939C10.1114 10.7079 1.75 20.1458 1.75 31.5001C1.75 44.0444 11.9557 54.2501 24.5 54.2501C37.0443 54.2501 47.25 44.0444 47.25 31.5001C47.2549 26.3055 45.4732 21.2672 42.204 17.2304L49.5516 11.1794L49.5531 11.1781L49.5563 11.1755C49.5782 11.1578 49.5987 11.1391 49.6188 11.119L50.9625 9.77528C51.2994 11.5067 50.9552 13.7079 50 15.3C48.6095 17.6176 48.2579 19.6458 48.9548 21.3283C49.5877 22.8563 51.0429 23.944 53.1631 24.4741C53.3876 24.5285 53.6245 24.4919 53.8221 24.3724C54.0198 24.2528 54.1621 24.06 54.2181 23.8359C54.2741 23.6118 54.2393 23.3747 54.1212 23.1762C54.003 22.9777 53.8112 22.834 53.5875 22.7764L53.5872 22.7763ZM32.375 5.25011C32.5481 5.25011 32.7172 5.30143 32.8611 5.39757C33.005 5.49372 33.1172 5.63038 33.1834 5.79026C33.2496 5.95015 33.2669 6.12608 33.2332 6.29581C33.1994 6.46555 33.1161 6.62146 32.9937 6.74383C32.8713 6.8662 32.7154 6.94953 32.5457 6.9833C32.376 7.01706 32.2 6.99973 32.0402 6.9335C31.8803 6.86728 31.7436 6.75513 31.6475 6.61123C31.5513 6.46734 31.5 6.29817 31.5 6.12511C31.5003 5.89313 31.5925 5.67072 31.7566 5.50668C31.9206 5.34264 32.143 5.25037 32.375 5.25011ZM22.75 7.00011H26.25V8.81672C25.6724 8.77231 25.0891 8.75011 24.5 8.75011C23.9109 8.75011 23.3276 8.77231 22.75 8.81672V7.00011ZM45.5 31.5001C45.5 43.0795 36.0794 52.5001 24.5 52.5001C12.9206 52.5001 3.5 43.0795 3.5 31.5001C3.5 19.9207 12.9206 10.5001 24.5 10.5001C29.7127 10.4959 34.7392 12.4381 38.5947 15.9462L37.4812 17.2984C33.9398 14.0481 29.3069 12.2464 24.5 12.2501C13.8855 12.2501 5.25 20.8856 5.25 31.5001C5.25 42.1146 13.8855 50.7501 24.5 50.7501C35.1145 50.7501 43.75 42.1146 43.75 31.5001C43.7541 27.1173 42.2552 22.8656 39.5034 19.4543L40.8537 18.3423C43.8642 22.0664 45.5044 26.7114 45.5 31.5001ZM33.5063 23.3688C33.6601 23.5226 33.8656 23.6136 34.0828 23.6241C34.3001 23.6346 34.5134 23.5638 34.6813 23.4255L38.1532 20.5663C40.6462 23.6648 42.0037 27.5232 42 31.5001C42 41.1496 34.1496 49.0001 24.5 49.0001C14.8504 49.0001 7 41.1496 7 31.5001C7 21.8506 14.8504 14.0001 24.5 14.0001C28.901 13.997 33.1403 15.6585 36.3672 18.6511L33.4495 22.1939C33.3113 22.3618 33.2405 22.5751 33.251 22.7924C33.2615 23.0096 33.3525 23.2151 33.5063 23.3688ZM41.0531 15.9111C41.0242 15.8804 40.9959 15.849 40.9668 15.8185L46.4377 9.17536L47.6996 10.4373L41.0531 15.9111ZM49 9.26275L47.6124 7.87511L48.4699 7.01772C48.8211 7.04375 49.1623 7.14681 49.4692 7.31956C49.7761 7.49232 50.0412 7.73054 50.2457 8.0173L49 9.26275ZM49.8961 5.59147L50.1314 5.3562C50.2956 5.19235 50.518 5.10033 50.75 5.10033C50.982 5.10033 51.2044 5.19235 51.3686 5.3562L51.5188 5.50637C51.6826 5.67061 51.7746 5.89313 51.7746 6.12511C51.7746 6.35709 51.6826 6.57961 51.5188 6.74384L51.4897 6.77294C51.0618 6.25615 50.515 5.85076 49.8961 5.59147Z" fill="#FB8B24"/>
</svg>
