<svg width="260" height="50" viewBox="0 0 260 50" fill="none" xmlns="http://www.w3.org/2000/svg">
<circle cx="25" cy="25" r="24.5" stroke="#FB8B24" stroke-linecap="round" stroke-linejoin="round"/>
<g clip-path="url(#clip0_0_119)">
<path d="M27 26.5H29.5L30.5 22.5H27V20.5C27 19.47 27 18.5 29 18.5H30.5V15.14C30.174 15.097 28.943 15 27.643 15C24.928 15 23 16.657 23 19.7V22.5H20V26.5H23V35H27V26.5Z" fill="#FB8B24"/>
</g>
<circle cx="95" cy="25" r="25" fill="#FB8B24"/>
<g clip-path="url(#clip1_0_119)">
<path d="M95 22C94.2044 22 93.4413 22.3161 92.8787 22.8787C92.3161 23.4413 92 24.2044 92 25C92 25.7956 92.3161 26.5587 92.8787 27.1213C93.4413 27.6839 94.2044 28 95 28C95.7956 28 96.5587 27.6839 97.1213 27.1213C97.6839 26.5587 98 25.7956 98 25C98 24.2044 97.6839 23.4413 97.1213 22.8787C96.5587 22.3161 95.7956 22 95 22ZM95 20C96.3261 20 97.5979 20.5268 98.5355 21.4645C99.4732 22.4021 100 23.6739 100 25C100 26.3261 99.4732 27.5979 98.5355 28.5355C97.5979 29.4732 96.3261 30 95 30C93.6739 30 92.4021 29.4732 91.4645 28.5355C90.5268 27.5979 90 26.3261 90 25C90 23.6739 90.5268 22.4021 91.4645 21.4645C92.4021 20.5268 93.6739 20 95 20ZM101.5 19.75C101.5 20.0815 101.368 20.3995 101.134 20.6339C100.899 20.8683 100.582 21 100.25 21C99.9185 21 99.6005 20.8683 99.3661 20.6339C99.1317 20.3995 99 20.0815 99 19.75C99 19.4185 99.1317 19.1005 99.3661 18.8661C99.6005 18.6317 99.9185 18.5 100.25 18.5C100.582 18.5 100.899 18.6317 101.134 18.8661C101.368 19.1005 101.5 19.4185 101.5 19.75ZM95 17C92.526 17 92.122 17.007 90.971 17.058C90.187 17.095 89.661 17.2 89.173 17.39C88.739 17.558 88.426 17.759 88.093 18.093C87.78 18.3954 87.5394 18.7646 87.389 19.173C87.199 19.663 87.094 20.188 87.058 20.971C87.006 22.075 87 22.461 87 25C87 27.474 87.007 27.878 87.058 29.029C87.095 29.812 87.2 30.339 87.389 30.826C87.559 31.261 87.759 31.574 88.091 31.906C88.428 32.242 88.741 32.443 89.171 32.609C89.665 32.8 90.191 32.906 90.971 32.942C92.075 32.994 92.461 33 95 33C97.474 33 97.878 32.993 99.029 32.942C99.811 32.905 100.338 32.8 100.826 32.611C101.259 32.442 101.574 32.241 101.906 31.909C102.243 31.572 102.444 31.259 102.61 30.829C102.8 30.336 102.906 29.809 102.942 29.029C102.994 27.925 103 27.539 103 25C103 22.526 102.993 22.122 102.942 20.971C102.905 20.189 102.8 19.661 102.61 19.173C102.459 18.765 102.219 18.396 101.907 18.093C101.605 17.7798 101.236 17.5392 100.827 17.389C100.337 17.199 99.811 17.094 99.029 17.058C97.925 17.006 97.539 17 95 17ZM95 15C97.717 15 98.056 15.01 99.122 15.06C100.187 15.11 100.912 15.277 101.55 15.525C102.21 15.779 102.766 16.123 103.322 16.678C103.83 17.1779 104.224 17.7826 104.475 18.45C104.722 19.087 104.89 19.813 104.94 20.878C104.987 21.944 105 22.283 105 25C105 27.717 104.99 28.056 104.94 29.122C104.89 30.187 104.722 30.912 104.475 31.55C104.225 32.2178 103.831 32.8226 103.322 33.322C102.822 33.8303 102.217 34.2238 101.55 34.475C100.913 34.722 100.187 34.89 99.122 34.94C98.056 34.987 97.717 35 95 35C92.283 35 91.944 34.99 90.878 34.94C89.813 34.89 89.088 34.722 88.45 34.475C87.7823 34.2245 87.1775 33.8309 86.678 33.322C86.1694 32.8222 85.7759 32.2175 85.525 31.55C85.277 30.913 85.11 30.187 85.06 29.122C85.013 28.056 85 27.717 85 25C85 22.283 85.01 21.944 85.06 20.878C85.11 19.812 85.277 19.088 85.525 18.45C85.7752 17.7822 86.1688 17.1773 86.678 16.678C87.1777 16.1692 87.7824 15.7757 88.45 15.525C89.088 15.277 89.812 15.11 90.878 15.06C91.944 15.013 92.283 15 95 15Z" fill="white"/>
</g>
<circle cx="165" cy="25" r="24.5" stroke="#FB8B24" stroke-linecap="round" stroke-linejoin="round"/>
<g clip-path="url(#clip2_0_119)">
<path d="M168.3 18.5501C167.54 18.55 166.81 18.8482 166.268 19.3807C165.726 19.9131 165.414 20.6372 165.4 21.3971L165.372 22.9721C165.37 23.0567 165.351 23.1399 165.315 23.2164C165.279 23.2929 165.227 23.3609 165.163 23.416C165.098 23.471 165.023 23.5119 164.942 23.5359C164.861 23.5599 164.776 23.5664 164.692 23.5551L163.131 23.3431C161.077 23.0631 159.109 22.1171 157.221 20.5441C156.623 23.8541 157.791 26.1471 160.604 27.9161L162.351 29.0141C162.434 29.0663 162.503 29.138 162.552 29.223C162.601 29.308 162.628 29.4036 162.631 29.5016C162.635 29.5996 162.614 29.6969 162.571 29.785C162.528 29.8731 162.464 29.9494 162.385 30.0071L160.793 31.1701C161.74 31.2291 162.639 31.1871 163.385 31.0391C168.103 30.0971 171.24 26.5471 171.24 20.6911C171.24 20.2131 170.228 18.5501 168.3 18.5501ZM163.4 21.3601C163.417 20.3962 163.719 19.4588 164.267 18.6653C164.814 17.8719 165.584 17.2576 166.479 16.8995C167.374 16.5413 168.355 16.4552 169.299 16.6519C170.243 16.8485 171.107 17.3193 171.785 18.0051C172.496 18.0001 173.101 18.1801 174.454 17.3601C174.119 19.0001 173.954 19.7121 173.24 20.6911C173.24 28.3331 168.543 32.0491 163.777 33.0001C160.509 33.6521 155.757 32.5811 154.395 31.1591C155.089 31.1051 157.909 30.8021 159.539 29.6091C158.16 28.7001 152.671 25.4701 156.278 16.7861C157.971 18.7631 159.688 20.1091 161.428 20.8231C162.586 21.2981 162.87 21.2881 163.401 21.3611L163.4 21.3601Z" fill="#FB8B24"/>
</g>
<circle cx="235" cy="25" r="24.5" stroke="#FB8B24" stroke-linecap="round" stroke-linejoin="round"/>
<g clip-path="url(#clip3_0_119)">
<path d="M229.94 18C229.94 18.5305 229.729 19.0391 229.353 19.4139C228.978 19.7888 228.469 19.9993 227.939 19.999C227.409 19.9988 226.9 19.7878 226.525 19.4125C226.15 19.0373 225.94 18.5285 225.94 17.998C225.94 17.4676 226.151 16.959 226.526 16.5841C226.902 16.2092 227.411 15.9988 227.941 15.999C228.471 15.9993 228.98 16.2103 229.355 16.5855C229.73 16.9608 229.94 17.4696 229.94 18ZM230 21.48H226V34H230V21.48ZM236.32 21.48H232.34V34H236.28V27.43C236.28 23.77 241.05 23.43 241.05 27.43V34H245V26.07C245 19.9 237.94 20.13 236.28 23.16L236.32 21.48Z" fill="#FB8B24"/>
</g>
<defs>
<clipPath id="clip0_0_119">
<rect width="24" height="24" fill="white" transform="translate(13 13)"/>
</clipPath>
<clipPath id="clip1_0_119">
<rect width="24" height="24" fill="white" transform="translate(83 13)"/>
</clipPath>
<clipPath id="clip2_0_119">
<rect width="24" height="24" fill="white" transform="translate(153 13)"/>
</clipPath>
<clipPath id="clip3_0_119">
<rect width="24" height="24" fill="white" transform="translate(223 13)"/>
</clipPath>
</defs>
</svg>
